<svg xmlns="http://www.w3.org/2000/svg" width="128" height="128" viewBox="0 0 128 128" fill="none">
  <rect width="128" height="128" rx="24" fill="#2563eb"/>
  <path d="M90 32H74V24C74 19.58 70.42 16 66 16H62C57.58 16 54 19.58 54 24V32H38C35.24 32 33 34.24 33 37V91C33 93.76 35.24 96 38 96H90C92.76 96 95 93.76 95 91V37C95 34.24 92.76 32 90 32ZM58 24C58 21.79 59.79 20 62 20H66C68.21 20 70 21.79 70 24V32H58V24ZM90 91H38V37H90V91Z" fill="white"/>
  <path d="M66 48H62V61H49V65H62V78H66V65H79V61H66V48Z" fill="white"/>
</svg>
